<?xml version="1.0" encoding="UTF-8"?>
<svg width="130px" height="175px" viewBox="0 0 130 175" version="1.1" xmlns="http://www.w3.org/2000/svg" xmlns:xlink="http://www.w3.org/1999/xlink">
    <!-- Generator: Sketch 64 (93537) - https://sketch.com -->
    <title>Group</title>
    <desc>Created with Sketch.</desc>
    <g id="Design" stroke="none" stroke-width="1" fill="none" fill-rule="evenodd" stroke-linecap="round" stroke-linejoin="round">
        <g id="03_webD_Home_LoggedIn" transform="translate(-630.000000, -9065.000000)" stroke="#FFFFFF" stroke-width="6">
            <g id="Group" transform="translate(633.000000, 9068.000000)">
                <path d="M58,2.00007 C37.8685,2.00007 8.2168,14.4825 5.00002,37.0001 C1.45683,61.8024 -2.522079,85.5006 3.77779,110 C4.56595,113.065 6.21149,116.673 9,118.222 C12.1574,119.976 13.9983,123.555 18,124 C19.491,124.166 22.533,124.567 23.7778,125.222 C26.0393,126.413 28.3626,127.073 30.8889,127.556 C32.3894,127.842 36.7155,127.208 35.4445,128.056 C33.263,129.51 43.9722,157.16 45.2222,161.222 C47.6164,169.003 53.8327,168.194 61,168 C69.4735,167.771 79.2807,167.416 87.5556,166 C94.8034,164.759 104.324,163.877 108,157.445 C111.008,152.181 112,145.538 112,139.5 C112,134.653 111.894,130.056 111.056,125.445 C110.577,122.81 108.363,116.979 109.056,114.556 C109.869,111.708 115.318,110.279 117.556,109 C120.819,107.135 120.367,104.597 121.056,101.5 C123.892,88.737 123.376,75.1713 123,62.0001 C122.847,56.6512 121.446,50.5321 120.778,45.1112 C119.511,34.8384 116.629,24.2571 112,15.0001 C108.211,7.4218 99.237,6.58773 92.4445,3.50007 C80.5564,-1.90361 64.9939,2.00007 53,2.00007" id="Path"></path>
                <path d="M60,167 C58.5691,163.333 57,159.011 57,155" id="Path"></path>
                <path d="M71,165 C69.3505,160.773 67.7462,156.477 67,152" id="Path"></path>
                <path d="M84,165 C82.9949,160.198 81.3422,155.698 80,151" id="Path"></path>
                <path d="M98,162 C95.65,152.371 93.8306,142.435 91,133" id="Path"></path>
                <path d="M48,69 C39.7588,64.9635 31.2869,64.0676 28.1111,74.3889 C26.4079,79.9242 32.8381,88 38.5,88 C40.6451,88 42.3534,89.9042 44.2222,88.2222 C46.2152,86.4285 45.8984,84.877 47.2222,83.2222 C49.2557,80.6804 48.3493,73.6986 47,71" id="Path"></path>
                <path d="M103,63 C95.8849,60.0041 85.2681,57.5434 83.0555,67.5 C81.6774,73.7018 86.8395,79.4842 92,81.7777 C97.732,84.3252 98.166,79.7364 99.5,76 C101.317,70.912 101.016,67.5244 98,63" id="Path"></path>
            </g>
        </g>
    </g>
</svg>
