<?xml version="1.0" encoding="UTF-8"?>
<svg width="426px" height="137px" viewBox="0 0 426 137" version="1.1" xmlns="http://www.w3.org/2000/svg" xmlns:xlink="http://www.w3.org/1999/xlink">
    <!-- Generator: Sketch 64 (93537) - https://sketch.com -->
    <title>RateMyDeath (White)</title>
    <desc>Created with Sketch.</desc>
    <defs>
        <path d="M35,0 C54.3299662,0 70,15.6852105 70,35.0338983 C70,46.7312205 64.2728335,57.0895958 55.4721985,63.4527561 L55.4716981,70 C55.4716981,74.418278 51.8899761,78 47.4716981,78 L22.5283019,78 C18.1100239,78 14.5283019,74.418278 14.5283019,70 L14.5278015,63.4527561 C5.72716648,57.0895958 0,46.7312205 0,35.0338983 C0,15.6852105 15.6700338,0 35,0 Z" id="path-1"></path>
    </defs>
    <g id="RateMyDeath-(White)" stroke="none" stroke-width="1" fill="none" fill-rule="evenodd">
        <g>
            <g id="White" transform="translate(0.000000, 29.176000)">
                <g id="5" transform="translate(356.000000, 0.000000)">
                    <path d="M35,0 C54.3299662,0 70,15.6852105 70,35.0338983 C70,46.7310861 64.2729652,57.0893577 55.4725019,63.4525367 L55.4716981,72.7118644 C55.4716981,75.632421 53.10641,78 50.1886792,78 L19.8113208,78 C16.89359,78 14.5283019,75.632421 14.5283019,72.7118644 L14.5281578,63.4530137 C5.72732105,57.0898754 0,46.7313784 0,35.0338983 C0,15.6852105 15.6700338,0 35,0 Z M35,3.96610169 C17.8583318,3.96610169 3.96226415,17.875628 3.96226415,35.0338983 C3.96226415,45.020866 8.69882215,54.2075476 16.56263,60.0289768 L16.8482231,60.2379199 L18.4903904,61.4252317 L18.490566,72.7118644 C18.490566,73.4088154 19.0293533,73.9798041 19.7127513,74.0302721 L19.8113208,74.0338983 L50.1886792,74.0338983 C50.8849559,74.0338983 51.4553921,73.4945893 51.5058113,72.8102296 L51.509434,72.7115198 L51.5104138,61.4247083 L53.1523622,60.2374967 C61.1866033,54.4283351 66.0377358,45.1409359 66.0377358,35.0338983 C66.0377358,17.875628 52.1416682,3.96610169 35,3.96610169 Z" id="Skull" fill="#FFFFFF" fill-rule="nonzero"></path>
                    <g id="Rectangle">
                        <mask id="mask-2" fill="white">
                            <use xlink:href="#path-1"></use>
                        </mask>
                        <g id="Mask"></g>
                        <rect fill="#FFFFFF" mask="url(#mask-2)" x="0" y="0" width="35" height="78"></rect>
                    </g>
                    <polygon id="Nose" fill="#000000" points="35 45.6101695 38.3018868 50.8983051 31.6981132 50.8983051"></polygon>
                    <path d="M46.5807513,30.2206585 L46.6647582,30.2978835 L49.9327242,33.5693804 L53.2021706,30.2976307 C53.7179782,29.7813252 54.5542351,29.7812928 55.0700028,30.2975584 C55.5586248,30.7866522 55.5843127,31.5636649 55.1470876,32.0830998 L55.0699305,32.1671938 L51.8007242,35.4383804 L55.0696777,38.7109176 C55.5854453,39.2271832 55.585413,40.0642475 55.0696054,40.580553 C54.5809456,41.0696845 53.8046803,41.0954573 53.2857802,40.6578503 L53.2017733,40.5806253 L49.9327242,37.3083804 L46.6643609,40.5808781 C46.1485533,41.0971836 45.3122964,41.097216 44.7965287,40.5809504 C44.3079068,40.0918566 44.2822188,39.3148439 44.7194439,38.795409 L44.796601,38.711315 L48.0647242,35.4383804 L44.7968538,32.1675912 C44.2810862,31.6513255 44.2811185,30.8142613 44.7969261,30.2979558 C45.2855859,29.8088242 46.0618512,29.7830514 46.5807513,30.2206585 Z" id="Right-Eye" fill="#FFFFFF" fill-rule="nonzero"></path>
                    <path d="M16.2033928,30.2206585 L16.2873997,30.2978835 L19.5553657,33.5693804 L22.8248122,30.2976307 C23.3406197,29.7813252 24.1768766,29.7812928 24.6926443,30.2975584 C25.1812663,30.7866522 25.2069542,31.5636649 24.7697291,32.0830998 L24.692572,32.1671938 L21.4233657,35.4383804 L24.6923192,38.7109176 C25.2080868,39.2271832 25.2080545,40.0642475 24.6922469,40.580553 C24.2035871,41.0696845 23.4273218,41.0954573 22.9084217,40.6578503 L22.8244148,40.5806253 L19.5553657,37.3083804 L16.2870024,40.5808781 C15.7711948,41.0971836 14.9349379,41.097216 14.4191703,40.5809504 C13.9305483,40.0918566 13.9048604,39.3148439 14.3420854,38.795409 L14.4192425,38.711315 L17.6873657,35.4383804 L14.4194954,32.1675912 C13.9037277,31.6513255 13.9037601,30.8142613 14.4195676,30.2979558 C14.9082274,29.8088242 15.6844927,29.7830514 16.2033928,30.2206585 Z" id="Left-Eye" fill="#000000" fill-rule="nonzero"></path>
                </g>
                <g id="4" transform="translate(267.000000, 0.000000)">
                    <path d="M35,0 C54.3299662,0 70,15.6852105 70,35.0338983 C70,46.7312205 64.2728335,57.0895958 55.4721985,63.4527561 L55.4716981,70 C55.4716981,74.418278 51.8899761,78 47.4716981,78 L22.5283019,78 C18.1100239,78 14.5283019,74.418278 14.5283019,70 L14.5278015,63.4527561 C5.72716648,57.0895958 0,46.7312205 0,35.0338983 C0,15.6852105 15.6700338,0 35,0 Z" id="Skull" fill="#FFFFFF"></path>
                    <polygon id="Nose" fill="#000000" points="35 45.6101695 38.3018868 50.8983051 31.6981132 50.8983051"></polygon>
                    <path d="M46.5807513,30.2206585 L46.6647582,30.2978835 L49.9327242,33.5693804 L53.2021706,30.2976307 C53.7179782,29.7813252 54.5542351,29.7812928 55.0700028,30.2975584 C55.5586248,30.7866522 55.5843127,31.5636649 55.1470876,32.0830998 L55.0699305,32.1671938 L51.8007242,35.4383804 L55.0696777,38.7109176 C55.5854453,39.2271832 55.585413,40.0642475 55.0696054,40.580553 C54.5809456,41.0696845 53.8046803,41.0954573 53.2857802,40.6578503 L53.2017733,40.5806253 L49.9327242,37.3083804 L46.6643609,40.5808781 C46.1485533,41.0971836 45.3122964,41.097216 44.7965287,40.5809504 C44.3079068,40.0918566 44.2822188,39.3148439 44.7194439,38.795409 L44.796601,38.711315 L48.0647242,35.4383804 L44.7968538,32.1675912 C44.2810862,31.6513255 44.2811185,30.8142613 44.7969261,30.2979558 C45.2855859,29.8088242 46.0618512,29.7830514 46.5807513,30.2206585 Z" id="Right-Eye" fill="#000000" fill-rule="nonzero"></path>
                    <path d="M16.2033928,30.2206585 L16.2873997,30.2978835 L19.5553657,33.5693804 L22.8248122,30.2976307 C23.3406197,29.7813252 24.1768766,29.7812928 24.6926443,30.2975584 C25.1812663,30.7866522 25.2069542,31.5636649 24.7697291,32.0830998 L24.692572,32.1671938 L21.4233657,35.4383804 L24.6923192,38.7109176 C25.2080868,39.2271832 25.2080545,40.0642475 24.6922469,40.580553 C24.2035871,41.0696845 23.4273218,41.0954573 22.9084217,40.6578503 L22.8244148,40.5806253 L19.5553657,37.3083804 L16.2870024,40.5808781 C15.7711948,41.0971836 14.9349379,41.097216 14.4191703,40.5809504 C13.9305483,40.0918566 13.9048604,39.3148439 14.3420854,38.795409 L14.4192425,38.711315 L17.6873657,35.4383804 L14.4194954,32.1675912 C13.9037277,31.6513255 13.9037601,30.8142613 14.4195676,30.2979558 C14.9082274,29.8088242 15.6844927,29.7830514 16.2033928,30.2206585 Z" id="Left-Eye" fill="#000000" fill-rule="nonzero"></path>
                </g>
                <g id="3" transform="translate(178.000000, 0.000000)">
                    <path d="M35,0 C54.3299662,0 70,15.6852105 70,35.0338983 C70,46.7312205 64.2728335,57.0895958 55.4721985,63.4527561 L55.4716981,70 C55.4716981,74.418278 51.8899761,78 47.4716981,78 L22.5283019,78 C18.1100239,78 14.5283019,74.418278 14.5283019,70 L14.5278015,63.4527561 C5.72716648,57.0895958 0,46.7312205 0,35.0338983 C0,15.6852105 15.6700338,0 35,0 Z" id="Skull" fill="#FFFFFF"></path>
                    <polygon id="Nose" fill="#000000" points="35 45.6101695 38.3018868 50.8983051 31.6981132 50.8983051"></polygon>
                    <path d="M46.5807513,30.2206585 L46.6647582,30.2978835 L49.9327242,33.5693804 L53.2021706,30.2976307 C53.7179782,29.7813252 54.5542351,29.7812928 55.0700028,30.2975584 C55.5586248,30.7866522 55.5843127,31.5636649 55.1470876,32.0830998 L55.0699305,32.1671938 L51.8007242,35.4383804 L55.0696777,38.7109176 C55.5854453,39.2271832 55.585413,40.0642475 55.0696054,40.580553 C54.5809456,41.0696845 53.8046803,41.0954573 53.2857802,40.6578503 L53.2017733,40.5806253 L49.9327242,37.3083804 L46.6643609,40.5808781 C46.1485533,41.0971836 45.3122964,41.097216 44.7965287,40.5809504 C44.3079068,40.0918566 44.2822188,39.3148439 44.7194439,38.795409 L44.796601,38.711315 L48.0647242,35.4383804 L44.7968538,32.1675912 C44.2810862,31.6513255 44.2811185,30.8142613 44.7969261,30.2979558 C45.2855859,29.8088242 46.0618512,29.7830514 46.5807513,30.2206585 Z" id="Right-Eye" fill="#000000" fill-rule="nonzero"></path>
                    <path d="M16.2033928,30.2206585 L16.2873997,30.2978835 L19.5553657,33.5693804 L22.8248122,30.2976307 C23.3406197,29.7813252 24.1768766,29.7812928 24.6926443,30.2975584 C25.1812663,30.7866522 25.2069542,31.5636649 24.7697291,32.0830998 L24.692572,32.1671938 L21.4233657,35.4383804 L24.6923192,38.7109176 C25.2080868,39.2271832 25.2080545,40.0642475 24.6922469,40.580553 C24.2035871,41.0696845 23.4273218,41.0954573 22.9084217,40.6578503 L22.8244148,40.5806253 L19.5553657,37.3083804 L16.2870024,40.5808781 C15.7711948,41.0971836 14.9349379,41.097216 14.4191703,40.5809504 C13.9305483,40.0918566 13.9048604,39.3148439 14.3420854,38.795409 L14.4192425,38.711315 L17.6873657,35.4383804 L14.4194954,32.1675912 C13.9037277,31.6513255 13.9037601,30.8142613 14.4195676,30.2979558 C14.9082274,29.8088242 15.6844927,29.7830514 16.2033928,30.2206585 Z" id="Left-Eye" fill="#000000" fill-rule="nonzero"></path>
                </g>
                <g id="2" transform="translate(89.000000, 0.000000)">
                    <path d="M35,0 C54.3299662,0 70,15.6852105 70,35.0338983 C70,46.7312205 64.2728335,57.0895958 55.4721985,63.4527561 L55.4716981,70 C55.4716981,74.418278 51.8899761,78 47.4716981,78 L22.5283019,78 C18.1100239,78 14.5283019,74.418278 14.5283019,70 L14.5278015,63.4527561 C5.72716648,57.0895958 0,46.7312205 0,35.0338983 C0,15.6852105 15.6700338,0 35,0 Z" id="Skull" fill="#FFFFFF"></path>
                    <polygon id="Nose" fill="#000000" points="35 45.6101695 38.3018868 50.8983051 31.6981132 50.8983051"></polygon>
                    <path d="M46.5807513,30.2206585 L46.6647582,30.2978835 L49.9327242,33.5693804 L53.2021706,30.2976307 C53.7179782,29.7813252 54.5542351,29.7812928 55.0700028,30.2975584 C55.5586248,30.7866522 55.5843127,31.5636649 55.1470876,32.0830998 L55.0699305,32.1671938 L51.8007242,35.4383804 L55.0696777,38.7109176 C55.5854453,39.2271832 55.585413,40.0642475 55.0696054,40.580553 C54.5809456,41.0696845 53.8046803,41.0954573 53.2857802,40.6578503 L53.2017733,40.5806253 L49.9327242,37.3083804 L46.6643609,40.5808781 C46.1485533,41.0971836 45.3122964,41.097216 44.7965287,40.5809504 C44.3079068,40.0918566 44.2822188,39.3148439 44.7194439,38.795409 L44.796601,38.711315 L48.0647242,35.4383804 L44.7968538,32.1675912 C44.2810862,31.6513255 44.2811185,30.8142613 44.7969261,30.2979558 C45.2855859,29.8088242 46.0618512,29.7830514 46.5807513,30.2206585 Z" id="Right-Eye" fill="#000000" fill-rule="nonzero"></path>
                    <path d="M16.2033928,30.2206585 L16.2873997,30.2978835 L19.5553657,33.5693804 L22.8248122,30.2976307 C23.3406197,29.7813252 24.1768766,29.7812928 24.6926443,30.2975584 C25.1812663,30.7866522 25.2069542,31.5636649 24.7697291,32.0830998 L24.692572,32.1671938 L21.4233657,35.4383804 L24.6923192,38.7109176 C25.2080868,39.2271832 25.2080545,40.0642475 24.6922469,40.580553 C24.2035871,41.0696845 23.4273218,41.0954573 22.9084217,40.6578503 L22.8244148,40.5806253 L19.5553657,37.3083804 L16.2870024,40.5808781 C15.7711948,41.0971836 14.9349379,41.097216 14.4191703,40.5809504 C13.9305483,40.0918566 13.9048604,39.3148439 14.3420854,38.795409 L14.4192425,38.711315 L17.6873657,35.4383804 L14.4194954,32.1675912 C13.9037277,31.6513255 13.9037601,30.8142613 14.4195676,30.2979558 C14.9082274,29.8088242 15.6844927,29.7830514 16.2033928,30.2206585 Z" id="Left-Eye" fill="#000000" fill-rule="nonzero"></path>
                </g>
                <g id="1">
                    <path d="M35,0 C54.3299662,0 70,15.6852105 70,35.0338983 C70,46.7312205 64.2728335,57.0895958 55.4721985,63.4527561 L55.4716981,70 C55.4716981,74.418278 51.8899761,78 47.4716981,78 L22.5283019,78 C18.1100239,78 14.5283019,74.418278 14.5283019,70 L14.5278015,63.4527561 C5.72716648,57.0895958 0,46.7312205 0,35.0338983 C0,15.6852105 15.6700338,0 35,0 Z" id="Skull" fill="#FFFFFF"></path>
                    <polygon id="Nose" fill="#000000" points="35 45.6101695 38.3018868 50.8983051 31.6981132 50.8983051"></polygon>
                    <path d="M46.5807513,30.2206585 L46.6647582,30.2978835 L49.9327242,33.5693804 L53.2021706,30.2976307 C53.7179782,29.7813252 54.5542351,29.7812928 55.0700028,30.2975584 C55.5586248,30.7866522 55.5843127,31.5636649 55.1470876,32.0830998 L55.0699305,32.1671938 L51.8007242,35.4383804 L55.0696777,38.7109176 C55.5854453,39.2271832 55.585413,40.0642475 55.0696054,40.580553 C54.5809456,41.0696845 53.8046803,41.0954573 53.2857802,40.6578503 L53.2017733,40.5806253 L49.9327242,37.3083804 L46.6643609,40.5808781 C46.1485533,41.0971836 45.3122964,41.097216 44.7965287,40.5809504 C44.3079068,40.0918566 44.2822188,39.3148439 44.7194439,38.795409 L44.796601,38.711315 L48.0647242,35.4383804 L44.7968538,32.1675912 C44.2810862,31.6513255 44.2811185,30.8142613 44.7969261,30.2979558 C45.2855859,29.8088242 46.0618512,29.7830514 46.5807513,30.2206585 Z" id="Right-Eye" fill="#000000" fill-rule="nonzero"></path>
                    <path d="M16.2033928,30.2206585 L16.2873997,30.2978835 L19.5553657,33.5693804 L22.8248122,30.2976307 C23.3406197,29.7813252 24.1768766,29.7812928 24.6926443,30.2975584 C25.1812663,30.7866522 25.2069542,31.5636649 24.7697291,32.0830998 L24.692572,32.1671938 L21.4233657,35.4383804 L24.6923192,38.7109176 C25.2080868,39.2271832 25.2080545,40.0642475 24.6922469,40.580553 C24.2035871,41.0696845 23.4273218,41.0954573 22.9084217,40.6578503 L22.8244148,40.5806253 L19.5553657,37.3083804 L16.2870024,40.5808781 C15.7711948,41.0971836 14.9349379,41.097216 14.4191703,40.5809504 C13.9305483,40.0918566 13.9048604,39.3148439 14.3420854,38.795409 L14.4192425,38.711315 L17.6873657,35.4383804 L14.4194954,32.1675912 C13.9037277,31.6513255 13.9037601,30.8142613 14.4195676,30.2979558 C14.9082274,29.8088242 15.6844927,29.7830514 16.2033928,30.2206585 Z" id="Left-Eye" fill="#000000" fill-rule="nonzero"></path>
                </g>
            </g>
            <path d="M45.939,40.176 L45.939,26.892 L58.845,26.892 C64.731,26.892 66.783,29.43 66.783,33.75 L66.783,38.556 C66.783,39.366 66.891,39.906 67.161,40.176 L85.845,40.176 L85.845,39.852 C85.413,39.15 85.089,38.178 85.089,35.802 L85.089,29.754 C85.089,24.57 81.849,21.06 76.179,19.926 C79.527,19.062 84.927,16.794 84.927,10.746 L84.927,10.206 C84.927,2.862 78.717,0 68.619,0 L27.741,0 L27.741,40.176 L45.939,40.176 Z M62.085,16.308 L45.939,16.308 L45.939,10.422 L62.085,10.422 C65.109,10.422 66.189,11.664 66.189,13.338 L66.189,13.392 C66.189,15.066 65.109,16.308 62.085,16.308 Z M105.783,40.176 L108.267,34.614 L129.705,34.614 L132.243,40.176 L152.439,40.176 L131.865,0 L106.701,0 L87.369,40.176 L105.783,40.176 Z M124.575,23.544 L113.235,23.544 L118.851,11.178 L124.575,23.544 Z M179.585,40.176 L179.585,12.582 L196.919,12.582 L196.919,0 L143.999,0 L143.999,12.582 L161.333,12.582 L161.333,40.176 L179.585,40.176 Z M247.339,40.176 L247.339,29.43 L218.341,29.43 L218.341,25.056 L246.637,25.056 L246.637,14.58 L218.341,14.58 L218.341,10.638 L247.069,10.638 L247.069,0 L200.413,0 L200.413,40.176 L247.339,40.176 Z M285.485,40.176 L285.485,17.982 L297.689,40.176 L306.599,40.176 L318.857,17.982 L318.857,40.176 L336.947,40.176 L336.947,0 L313.673,0 L302.657,19.926 L291.911,0 L267.557,0 L267.557,40.176 L285.485,40.176 Z M378.997,40.176 L378.997,25.758 L401.191,0 L381.643,0 L370.519,12.906 L359.557,0 L338.281,0 L360.799,25.542 L360.799,40.176 L378.997,40.176 Z" id="RATEMY" fill="#E95656" fill-rule="nonzero"></path>
            <path d="M100.553,136.176 C124.853,136.176 130.145,126.186 130.145,116.682 L130.145,115.008 C130.145,105.018 123.611,96 100.553,96 L69.989,96 L69.989,136.176 L100.553,136.176 Z M97.799,124.566 L88.187,124.566 L88.187,107.61 L97.799,107.61 C109.971091,107.61 111.217784,112.782411 111.244546,115.665502 L111.245,116.088 C111.245,118.95 110.165,124.566 97.799,124.566 Z M179.895,136.176 L179.895,125.43 L150.897,125.43 L150.897,121.056 L179.193,121.056 L179.193,110.58 L150.897,110.58 L150.897,106.638 L179.625,106.638 L179.625,96 L132.969,96 L132.969,136.176 L179.895,136.176 Z M200.427,136.176 L202.911,130.614 L224.349,130.614 L226.887,136.176 L247.083,136.176 L226.509,96 L201.345,96 L182.013,136.176 L200.427,136.176 Z M219.219,119.544 L207.879,119.544 L213.495,107.178 L219.219,119.544 Z M275.029,136.176 L275.029,108.582 L292.363,108.582 L292.363,96 L239.443,96 L239.443,108.582 L256.777,108.582 L256.777,136.176 L275.029,136.176 Z M314.055,136.176 L314.055,121.434 L337.113,121.434 L337.113,136.176 L355.365,136.176 L355.365,96 L337.113,96 L337.113,109.716 L314.055,109.716 L314.055,96 L295.857,96 L295.857,136.176 L314.055,136.176 Z" id="DEATH" fill="#E95656" fill-rule="nonzero"></path>
        </g>
    </g>
</svg>