<?xml version="1.0" encoding="UTF-8"?>
<svg width="104px" height="63px" viewBox="0 0 104 63" version="1.1" xmlns="http://www.w3.org/2000/svg" xmlns:xlink="http://www.w3.org/1999/xlink">
    <!-- Generator: Sketch 64 (93537) - https://sketch.com -->
    <title>Group</title>
    <desc>Created with Sketch.</desc>
    <defs>
        <path d="M9.2884,22.0207 L6.69,19.3495 C6.1419,18.7915 5.405,18.4585 4.6239,18.4158 C3.8429,18.373 3.0741,18.6237 2.4683,19.1186 L2.092,19.4293 C1.5159,19.901 1.1286,20.5641 1.0006,21.2976 C0.8726,22.0312 1.0126,22.7863 1.3949,23.4252 L6.11,31.378 C7.176,33.1844 8.6872,34.6876 10.4994,35.7439 C12.3115,36.8002 14.3641,37.3745 16.4613,37.412 C18.0601,37.432 19.6468,37.1326 21.1283,36.5314 C22.6099,35.9301 23.9565,35.0392 25.0892,33.9108 L25.131,33.869 C26.2575,32.7487 27.1506,31.4161 27.7585,29.9483 C28.3665,28.4805 28.6772,26.9066 28.6728,25.3179 L28.6728,17.7525 C28.6723,17.2247 28.538,16.7056 28.2824,16.2438 C28.0269,15.782 27.6584,15.3924 27.2114,15.1117 C26.7645,14.8309 26.2537,14.668 25.7267,14.6382 C25.1997,14.6084 24.6737,14.7127 24.198,14.9414 C24.0857,14.4918 23.8747,14.0728 23.5802,13.715 C23.2857,13.3572 22.9151,13.0696 22.4955,12.873 C22.0759,12.6764 21.6177,12.5758 21.1543,12.5785 C20.6909,12.5812 20.2339,12.6871 19.8166,12.8886 C19.706,12.4474 19.5004,12.0356 19.2142,11.6821 C18.9279,11.3286 18.568,11.0419 18.1594,10.8419 C17.7508,10.642 17.3035,10.5337 16.8488,10.5246 C16.394,10.5155 15.9427,10.6057 15.5265,10.7891 L15.5266,3.7547 C15.5266,3.3451 15.4459,2.9395 15.2892,2.5611 C15.1324,2.1827 14.9026,1.8389 14.613,1.5492 C14.3234,1.2596 13.9795,1.0299 13.6011,0.8731 C13.2226,0.7164 12.8171,0.6357 12.4074,0.6357 C11.9978,0.6357 11.5922,0.7164 11.2138,0.8732 C10.8354,1.0299 10.4916,1.2597 10.2019,1.5493 C9.9123,1.839 9.6826,2.1828 9.5258,2.5612 C9.3691,2.9397 9.2884,3.3453 9.2884,3.7549 L9.2884,22.0207 Z M12.4076,2.4916 C12.7424,2.4921 13.0634,2.6253 13.3002,2.8621 C13.537,3.0989 13.6702,3.4199 13.6707,3.7547 L13.6704,13.6175 C13.6703,13.6261 13.6704,13.6344 13.6704,13.6431 L13.6705,20.147 C13.6705,20.3931 13.7682,20.6291 13.9422,20.8032 C14.1163,20.9772 14.3523,21.075 14.5984,21.075 C14.8445,21.075 15.0806,20.9772 15.2546,20.8032 C15.4286,20.6292 15.5264,20.3931 15.5264,20.147 L15.5266,13.6265 C15.5313,13.4069 15.5932,13.1923 15.7062,13.0039 C15.8193,12.8156 15.9795,12.66 16.1711,12.5526 C16.3627,12.4452 16.579,12.3897 16.7986,12.3915 C17.0183,12.3933 17.2336,12.4525 17.4234,12.5631 C17.62,12.6889 17.781,12.8631 17.8912,13.0689 C18.0014,13.2746 18.057,13.5052 18.0527,13.7386 L18.0526,15.6695 C18.0527,15.6789 18.0525,15.6883 18.0526,15.6977 L18.0527,20.1469 C18.053,20.3928 18.1509,20.6285 18.3249,20.8023 C18.4989,20.9761 18.7348,21.0737 18.9807,21.0737 C19.2266,21.0737 19.4625,20.9761 19.6365,20.8023 C19.8105,20.6285 19.9084,20.3928 19.9087,20.1469 L19.9086,15.6799 C19.9116,15.4925 19.9561,15.3082 20.0389,15.1402 C20.1218,14.9721 20.2409,14.8246 20.3877,14.7081 C20.5345,14.5917 20.7053,14.5093 20.8877,14.4669 C21.0702,14.4245 21.2599,14.4232 21.4429,14.463 C21.7283,14.53 21.9823,14.6926 22.1627,14.9237 C22.343,15.1548 22.4391,15.4405 22.4349,15.7337 L22.4349,17.7298 C22.4348,17.7374 22.4345,17.7448 22.4348,17.7523 L22.4348,20.147 C22.4348,20.3931 22.5325,20.6292 22.7066,20.8032 C22.8806,20.9772 23.1166,21.075 23.3627,21.075 C23.6089,21.075 23.8449,20.9772 24.0189,20.8032 C24.193,20.6292 24.2907,20.3931 24.2907,20.147 L24.2908,17.738 C24.302,17.408 24.4391,17.0947 24.674,16.8625 C24.9089,16.6304 25.2236,16.4968 25.5538,16.4894 C25.7598,16.4891 25.9628,16.5392 26.1449,16.6354 C26.3271,16.7316 26.4829,16.8709 26.5988,17.0412 C26.7467,17.266 26.8226,17.5304 26.8167,17.7993 L26.8164,25.3189 C26.8163,28.0336 25.7378,30.6371 23.8182,32.5568 L23.7829,32.5921 C22.8239,33.5474 21.6839,34.3016 20.4297,34.8105 C19.1754,35.3195 17.8322,35.573 16.4788,35.5561 C14.7006,35.5226 12.9606,35.034 11.4249,34.1369 C9.8892,33.2398 8.609,31.9641 7.7065,30.4316 L2.9913,22.4787 C2.8473,22.2382 2.7879,21.9564 2.8225,21.6783 C2.8571,21.4001 2.9838,21.1415 3.1824,20.9436 C3.2113,20.9146 3.2417,20.8871 3.2737,20.8607 L3.6498,20.5503 C3.8944,20.3483 4.206,20.2458 4.5227,20.2631 C4.8394,20.2804 5.138,20.4162 5.3591,20.6436 L8.595,23.9701 C8.801,24.1819 9.0655,24.3274 9.3547,24.3881 C9.6438,24.4487 9.9445,24.4217 10.2182,24.3105 C10.4919,24.1994 10.7262,24.0091 10.8912,23.764 C11.0562,23.5189 11.1443,23.2302 11.1443,22.9348 L11.1443,3.7549 C11.1522,3.4223 11.2878,3.1056 11.523,2.8703 C11.7582,2.6351 12.075,2.4995 12.4076,2.4916 Z" id="path-1"></path>
    </defs>
    <g id="Login/Signup-Desktop" stroke="none" stroke-width="1" fill="none" fill-rule="evenodd">
        <g id="Login/Signup" transform="translate(-158.000000, -632.000000)">
            <g id="Group" transform="translate(158.000000, 632.000000)">
                <rect id="Rectangle" stroke="#000000" stroke-width="1.5" fill="#FFFFFF" fill-rule="nonzero" x="12.75" y="0.75" width="78.5" height="48.5"></rect>
                <path d="M67.5303,15.5303 C67.8232,15.2374 67.8232,14.7626 67.5303,14.4697 L62.7574,9.6967 C62.4645,9.40381 61.9896,9.40381 61.6967,9.6967 C61.4038,9.98959 61.4038,10.4645 61.6967,10.7574 L65.9393,15 L61.6967,19.2426 C61.4038,19.5355 61.4038,20.0104 61.6967,20.3033 C61.9896,20.5962 62.4645,20.5962 62.7574,20.3033 L67.5303,15.5303 Z M36.4697,14.4697 C36.1768,14.7626 36.1768,15.2374 36.4697,15.5303 L41.2426,20.3033 C41.5355,20.5962 42.0104,20.5962 42.3033,20.3033 C42.5962,20.0104 42.5962,19.5355 42.3033,19.2426 L38.0607,15 L42.3033,10.7574 C42.5962,10.4645 42.5962,9.98959 42.3033,9.6967 C42.0104,9.40381 41.5355,9.40381 41.2426,9.6967 L36.4697,14.4697 Z M67,14.25 L37,14.25 L37,15.75 L67,15.75 L67,14.25 Z" id="Shape" fill="#000000" fill-rule="nonzero"></path>
                <polygon id="Path" fill="#FFFFFF" fill-rule="nonzero" points="41 48 65 48 64.5 55.5 60 59.5 54.5 61 50 60.5 46 57.5"></polygon>
                <g id="Clipped" transform="translate(38.000000, 25.000000)">
                    <mask id="mask-2" fill="white">
                        <use xlink:href="#path-1"></use>
                    </mask>
                    <g id="Shape"></g>
                    <path d="M9.2884,22.0207 L6.69,19.3495 C6.1419,18.7915 5.405,18.4585 4.6239,18.4158 C3.8429,18.373 3.0741,18.6237 2.4683,19.1186 L2.092,19.4293 C1.5159,19.901 1.1286,20.5641 1.0006,21.2976 C0.8726,22.0312 1.0126,22.7863 1.3949,23.4252 L6.11,31.378 C7.176,33.1844 8.6872,34.6876 10.4994,35.7439 C12.3115,36.8002 14.3641,37.3745 16.4613,37.412 C18.0601,37.432 19.6468,37.1326 21.1283,36.5314 C22.6099,35.9301 23.9565,35.0392 25.0892,33.9108 L25.131,33.869 C26.2575,32.7487 27.1506,31.4161 27.7585,29.9483 C28.3665,28.4805 28.6772,26.9066 28.6728,25.3179 L28.6728,17.7525 C28.6723,17.2247 28.538,16.7056 28.2824,16.2438 C28.0269,15.782 27.6584,15.3924 27.2114,15.1117 C26.7645,14.8309 26.2537,14.668 25.7267,14.6382 C25.1997,14.6084 24.6737,14.7127 24.198,14.9414 C24.0857,14.4918 23.8747,14.0728 23.5802,13.715 C23.2857,13.3572 22.9151,13.0696 22.4955,12.873 C22.0759,12.6764 21.6177,12.5758 21.1543,12.5785 C20.6909,12.5812 20.2339,12.6871 19.8166,12.8886 C19.706,12.4474 19.5004,12.0356 19.2142,11.6821 C18.9279,11.3286 18.568,11.0419 18.1594,10.8419 C17.7508,10.642 17.3035,10.5337 16.8488,10.5246 C16.394,10.5155 15.9427,10.6057 15.5265,10.7891 L15.5266,3.7547 C15.5266,3.3451 15.4459,2.9395 15.2892,2.5611 C15.1324,2.1827 14.9026,1.8389 14.613,1.5492 C14.3234,1.2596 13.9795,1.0299 13.6011,0.8731 C13.2226,0.7164 12.8171,0.6357 12.4074,0.6357 C11.9978,0.6357 11.5922,0.7164 11.2138,0.8732 C10.8354,1.0299 10.4916,1.2597 10.2019,1.5493 C9.9123,1.839 9.6826,2.1828 9.5258,2.5612 C9.3691,2.9397 9.2884,3.3453 9.2884,3.7549 L9.2884,22.0207 Z M12.4076,2.4916 C12.7424,2.4921 13.0634,2.6253 13.3002,2.8621 C13.537,3.0989 13.6702,3.4199 13.6707,3.7547 L13.6704,13.6175 C13.6703,13.6261 13.6704,13.6344 13.6704,13.6431 L13.6705,20.147 C13.6705,20.3931 13.7682,20.6291 13.9422,20.8032 C14.1163,20.9772 14.3523,21.075 14.5984,21.075 C14.8445,21.075 15.0806,20.9772 15.2546,20.8032 C15.4286,20.6292 15.5264,20.3931 15.5264,20.147 L15.5266,13.6265 C15.5313,13.4069 15.5932,13.1923 15.7062,13.0039 C15.8193,12.8156 15.9795,12.66 16.1711,12.5526 C16.3627,12.4452 16.579,12.3897 16.7986,12.3915 C17.0183,12.3933 17.2336,12.4525 17.4234,12.5631 C17.62,12.6889 17.781,12.8631 17.8912,13.0689 C18.0014,13.2746 18.057,13.5052 18.0527,13.7386 L18.0526,15.6695 C18.0527,15.6789 18.0525,15.6883 18.0526,15.6977 L18.0527,20.1469 C18.053,20.3928 18.1509,20.6285 18.3249,20.8023 C18.4989,20.9761 18.7348,21.0737 18.9807,21.0737 C19.2266,21.0737 19.4625,20.9761 19.6365,20.8023 C19.8105,20.6285 19.9084,20.3928 19.9087,20.1469 L19.9086,15.6799 C19.9116,15.4925 19.9561,15.3082 20.0389,15.1402 C20.1218,14.9721 20.2409,14.8246 20.3877,14.7081 C20.5345,14.5917 20.7053,14.5093 20.8877,14.4669 C21.0702,14.4245 21.2599,14.4232 21.4429,14.463 C21.7283,14.53 21.9823,14.6926 22.1627,14.9237 C22.343,15.1548 22.4391,15.4405 22.4349,15.7337 L22.4349,17.7298 C22.4348,17.7374 22.4345,17.7448 22.4348,17.7523 L22.4348,20.147 C22.4348,20.3931 22.5325,20.6292 22.7066,20.8032 C22.8806,20.9772 23.1166,21.075 23.3627,21.075 C23.6089,21.075 23.8449,20.9772 24.0189,20.8032 C24.193,20.6292 24.2907,20.3931 24.2907,20.147 L24.2908,17.738 C24.302,17.408 24.4391,17.0947 24.674,16.8625 C24.9089,16.6304 25.2236,16.4968 25.5538,16.4894 C25.7598,16.4891 25.9628,16.5392 26.1449,16.6354 C26.3271,16.7316 26.4829,16.8709 26.5988,17.0412 C26.7467,17.266 26.8226,17.5304 26.8167,17.7993 L26.8164,25.3189 C26.8163,28.0336 25.7378,30.6371 23.8182,32.5568 L23.7829,32.5921 C22.8239,33.5474 21.6839,34.3016 20.4297,34.8105 C19.1754,35.3195 17.8322,35.573 16.4788,35.5561 C14.7006,35.5226 12.9606,35.034 11.4249,34.1369 C9.8892,33.2398 8.609,31.9641 7.7065,30.4316 L2.9913,22.4787 C2.8473,22.2382 2.7879,21.9564 2.8225,21.6783 C2.8571,21.4001 2.9838,21.1415 3.1824,20.9436 C3.2113,20.9146 3.2417,20.8871 3.2737,20.8607 L3.6498,20.5503 C3.8944,20.3483 4.206,20.2458 4.5227,20.2631 C4.8394,20.2804 5.138,20.4162 5.3591,20.6436 L8.595,23.9701 C8.801,24.1819 9.0655,24.3274 9.3547,24.3881 C9.6438,24.4487 9.9445,24.4217 10.2182,24.3105 C10.4919,24.1994 10.7262,24.0091 10.8912,23.764 C11.0562,23.5189 11.1443,23.2302 11.1443,22.9348 L11.1443,3.7549 C11.1522,3.4223 11.2878,3.1056 11.523,2.8703 C11.7582,2.6351 12.075,2.4995 12.4076,2.4916 Z" id="Shape" stroke="#000000" stroke-width="2" fill="#FFFFFF" fill-rule="nonzero" mask="url(#mask-2)"></path>
                </g>
                <rect id="Rectangle" stroke="#000000" stroke-width="1.5" fill="#FFFFFF" fill-rule="nonzero" x="96.75" y="0.75" width="6.5" height="48.5"></rect>
                <rect id="Rectangle" stroke="#000000" stroke-width="1.5" fill="#FFFFFF" fill-rule="nonzero" x="0.75" y="0.75" width="6.5" height="48.5"></rect>
                <polyline id="Path" stroke="#000000" stroke-width="1.5" points="19 22 16.1716 24.8284 19 27.6569"></polyline>
                <polyline id="Path" stroke="#000000" stroke-width="1.5" points="85 27.6567 87.8284 24.8283 85 21.9999"></polyline>
            </g>
        </g>
    </g>
</svg>
