<?xml version="1.0" standalone="no"?>
<!DOCTYPE svg PUBLIC "-//W3C//DTD SVG 20010904//EN"
 "http://www.w3.org/TR/2001/REC-SVG-20010904/DTD/svg10.dtd">
<svg version="1.0" xmlns="http://www.w3.org/2000/svg"
 width="700.000000pt" height="700.000000pt" viewBox="0 0 700.000000 700.000000"
 preserveAspectRatio="xMidYMid meet">
<metadata>
Created by potrace 1.11, written by Peter Selinger 2001-2013
</metadata>
<g transform="translate(0.000000,700.000000) scale(0.100000,-0.100000)"
fill="#000000" stroke="none">
<path d="M3387 6794 c-1 -1 -49 -4 -107 -8 -58 -4 -121 -9 -140 -11 -19 -3
-55 -7 -79 -10 -36 -5 -115 -19 -217 -39 -157 -31 -427 -117 -579 -186 -357
-160 -651 -357 -920 -619 -86 -83 -135 -135 -259 -281 -12 -14 -56 -72 -97
-130 -263 -365 -443 -782 -525 -1215 -4 -22 -9 -47 -10 -55 -2 -8 -6 -40 -10
-70 -3 -30 -7 -57 -9 -60 -18 -29 -27 -535 -12 -680 16 -152 43 -305 82 -470
20 -81 76 -261 95 -305 5 -11 25 -60 45 -110 75 -186 202 -415 328 -594 33
-47 63 -88 66 -91 4 -3 19 -23 36 -45 117 -158 352 -388 553 -541 l107 -81 0
-289 c-1 -159 3 -311 8 -339 29 -166 184 -323 347 -351 73 -12 2745 -11 2815
1 156 28 286 142 341 300 15 43 17 94 18 365 l2 315 80 60 c547 409 934 965
1125 1620 21 72 25 87 53 215 21 93 43 242 53 351 15 164 7 581 -13 682 -2 12
-6 40 -9 62 -18 138 -83 398 -141 560 -129 361 -363 754 -615 1030 -133 145
-338 332 -449 408 -25 17 -47 33 -50 37 -7 8 -215 141 -272 174 -167 95 -440
213 -606 262 -177 52 -231 65 -392 93 -36 6 -74 13 -85 15 -84 16 -544 41
-558 30z"/>
</g>
</svg>
