<?xml version="1.0" encoding="UTF-8"?>
<svg width="30px" height="25px" viewBox="0 0 30 25" version="1.1" xmlns="http://www.w3.org/2000/svg" xmlns:xlink="http://www.w3.org/1999/xlink">
    <!-- Generator: Sketch 64 (93537) - https://sketch.com -->
    <title>Group</title>
    <desc>Created with Sketch.</desc>
    <g id="Dashboard-Desktop" stroke="none" stroke-width="1" fill="none" fill-rule="evenodd">
        <g id="No-Notifications" transform="translate(-350.000000, -418.000000)" fill="#FFFFFF" fill-rule="nonzero">
            <g id="Group" transform="translate(350.000000, 418.000000)">
                <path d="M9.4344,24.9999999 C20.7552,24.9999999 26.9472,15.3809 26.9472,7.0393 C26.9472,6.76609 26.9472,6.49411 26.9292,6.22336 C28.1338,5.32977 29.1736,4.22334 30,2.95587 C28.8767,3.46637 27.685,3.80115 26.4648,3.94904 C27.7497,3.16014 28.7113,1.91935 29.1708,0.457571 C27.9626,1.19285 26.6408,1.71104 25.2624,1.98978 C24.3344,0.977765 23.107,0.307634 21.7702,0.083088 C20.4335,-0.141458 19.0618,0.0921005 17.8675,0.747621 C16.6731,1.40314 15.7228,2.44408 15.1634,3.70935 C14.6041,4.97462 14.4669,6.39368 14.7732,7.74695 C12.3261,7.62113 9.93216,6.96895 7.74677,5.83272 C5.56138,4.6965 3.6334,3.10164 2.088,1.15168 C1.30091,2.54133 1.05984,4.18639 1.41387,5.75193 C1.76791,7.31746 2.69043,8.68575 3.9936,9.57822 C3.01409,9.54844 2.05594,9.27745 1.2,8.78812 C1.2,8.81396 1.2,8.84103 1.2,8.86811 C1.20039,10.3255 1.69231,11.7379 2.59234,12.8658 C3.49236,13.9936 4.74508,14.7674 6.138,15.056 C5.23184,15.3095 4.2811,15.3465 3.3588,15.1643 C3.75211,16.4186 4.51784,17.5154 5.54888,18.3014 C6.57993,19.0875 7.82474,19.5233 9.1092,19.548 C6.92968,21.3048 4.23727,22.2584 1.4652,22.2556 C0.975484,22.2546 0.486245,22.2242 0,22.1645 C2.81476,24.017 6.0899,24.9997 9.4344,24.9951" id="Path"></path>
            </g>
        </g>
    </g>
</svg>
